<svg xmlns="http://www.w3.org/2000/svg" viewBox="0 0 1000 1000">
  <path class="codepen_icon" d="M196.43 621.88l269.2 179.46 0 -160.27 -149.11 -99.55 -120.09 80.36zm-27.68 -64.29l86.16 -57.59 -86.16 -57.59 0 115.18zm365.63 243.75l269.19 -179.46 -120.09 -80.36 -149.1 99.55 0 160.27zm-34.38 -220.09l121.43 -81.25 -121.43 -81.25 -121.43 81.25 121.43 81.25zm-183.48 -122.77l149.11 -99.55 0 -160.27 -269.2 179.47 120.09 80.35zm428.57 41.52l86.16 57.59 0 -115.18 -86.16 57.59zm-61.61 -41.52l120.09 -80.35 -269.19 -179.47 0 160.27 149.1 99.55zm216.52 -80.35l0 243.74c0,12.21 -5.06,21.73 -15.18,28.58l-365.62 243.74c-9.89,6.13 -27.36,7.36 -38.4,0l-365.62 -243.74c-10.12,-6.85 -15.18,-16.37 -15.18,-28.57l0 -243.75c0,-12.21 5.06,-21.73 15.18,-28.57l365.62 -243.75c9.89,-6.12 27.36,-7.36 38.4,0l365.62 243.75c10.12,6.84 15.18,16.36 15.18,28.57z"/>
</svg>