<svg xmlns="http://www.w3.org/2000/svg" viewBox="0 0 1000 1000">
  <path class="linkedin_icon" d="M196.15 100.68c-53.15,0 -96.15,43 -96.15,96.04 0,53.04 43,96.15 96.15,96.15 53.04,0 96.15,-43.11 96.04,-96.15 0,-52.93 -43,-96.04 -96.04,-96.04zm186.94 265.07l0 533.57 165.73 0 0 -263.93c0,-69.58 13.12,-136.99 99.46,-136.99 84.97,0 86.23,79.5 86.23,141.44l0 259.37 165.49 0 0 -292.56c0,-143.72 -30.91,-254.13 -198.69,-254.13 -80.75,0 -134.81,44.14 -156.94,86.12l-2.28 0 0 -72.89 -159 0zm-104.02 0l-165.84 0 0 533.46 165.84 0 0 -533.46z"/>
</svg>