<?xml version="1.0" encoding="UTF-8"?>
<!DOCTYPE svg PUBLIC "-//W3C//DTD SVG 1.1//EN" "http://www.w3.org/Graphics/SVG/1.1/DTD/svg11.dtd">
<!-- Creator: CorelDRAW 2017 -->
<svg xmlns="http://www.w3.org/2000/svg" xml:space="preserve" width="9mm" height="9mm" version="1.1" style="shape-rendering:geometricPrecision; text-rendering:geometricPrecision; image-rendering:optimizeQuality; fill-rule:evenodd; clip-rule:evenodd"
viewBox="0 0 900 900"
 xmlns:xlink="http://www.w3.org/1999/xlink">
 <defs>
  <style type="text/css">
   <![CDATA[
    .fil0 {fill:black}
   ]]>
  </style>
 </defs>
 <g id="Layer_x0020_1">
  <metadata id="CorelCorpID_0Corel-Layer"/>
  <g id="menu_icon">
   <path id="dash_bottom" class="fil0" d="M145.31 609.35l608.53 0c73.74,0 73.74,111.47 0,111.47l-608.53 0c-73.74,0 -73.74,-111.47 0,-111.47z"/>
   <path id="dash_middle" class="fil0" d="M145.52 394.26c202.84,0 405.68,0 608.53,0 73.74,0 73.74,111.47 0,111.47 -202.84,0 -405.68,0 -608.53,0 -73.74,0 -73.74,-111.47 0,-111.47z"/>
   <path id="dash_top" class="fil0" d="M145.74 179.17l608.53 0c73.74,0 73.74,111.47 0,111.47l-608.53 0c-73.74,0 -73.74,-111.47 0,-111.47z"/>
  </g>
 </g>
</svg>
