<svg xmlns="http://www.w3.org/2000/svg" viewBox="0 0 30000 10000"><path style="fill: #3e596a" d="M5277.33 1546.07c3528.59,747.17 7490.47,1405.74 7910.58,662.41 254.55,-450.41 549.39,-912.56 1065.12,-1182.62 -567.02,-206.58 -997.55,-285.89 -1000.43,-286.17 441.88,-177.82 992.97,-138.47 1520.41,65.64 798.13,-269.84 1902.18,-318.95 2646.72,126.66 -261.55,-318.78 -516.55,-541.64 -518.01,-542.92 644.12,137.39 996.15,657.78 1095.34,1149.18 178.39,343.64 207.72,1032.64 -105.57,1513.85 400.68,-1755.8 -967.57,-2417.06 -2662.5,-2025.05 582.54,344.14 1080.65,889.4 1286.66,1554.32 -641.65,-922.8 -1711.62,-1329.71 -1822.62,-1378.74 -589.82,255.52 -1042.19,621.55 -1255.36,1083.59 -500.55,1084.93 -5733.33,-102.45 -8160.34,-740.15zm10234.87 481.96c88.46,-0.95 201.81,207.28 201.81,469.22 0,261.94 -129.44,479.32 -201.81,479.32 -178.34,0 -322.91,-212.33 -322.91,-474.27 0,-261.94 144.58,-472.36 322.91,-474.27zm2100.96 1454.94c-54.3,562.91 -302.81,1045.72 -521.22,1333.2 34.79,-622.89 -122,-1336.02 -122,-1336.02 207.64,126.74 462.48,111.52 643.22,2.82zm5666.63 164.31c952.82,-215.09 5152.99,-1467.18 4760.66,-2822.01 -91.5,-316.01 -4247.34,2131.62 -8592.09,1794.77 4616.38,-50.76 9808.86,-3219.5 9994.82,-2422.52 206.13,883.45 -918.46,1709.75 -2280.16,2332.08 -471.2,1030.54 -1365.55,1765.25 -2575.6,2282.84 -1141.75,2183.53 -3902.21,2805.67 -7967.91,2359.59 5472.91,290.86 5867.38,-1321.68 6180.22,-1791.97 -653.9,151.52 -1360.88,266.96 -2111.49,353.24 4339.76,-774.92 4982.04,-2228.87 5079.16,-2656.28 -1060.29,356.7 -2048.27,568.22 -2487.61,570.26zm-21697.13 -2239.27c-170.19,214.8 -249.27,688.56 -69.85,912.83 -242.57,498.51 -242.21,1274.48 190.47,1661.64 -345.74,501.12 116.5,991.49 546.9,1239.86 -635.42,1907.2 7565.57,1636.05 8322.77,2059.42 678.17,379.18 -375.41,817.62 -272.85,977.14 940.4,1462.85 6174.83,1041.69 5993.92,-6.56 -230.29,-1334.48 441.01,-1682 2115.97,-1955.54 -2198.54,573.22 -2192.09,844.45 -1759.95,2613.61 360.11,1474.22 -6418.88,1315.71 -7422.56,-245.59 -286.5,-445.72 1208.43,-913.96 939.79,-1188.88 -235.64,-241.13 -9117.8,-151.52 -8754.55,-2644.6 -379.81,-258.32 -811.18,-839.9 -577.67,-1313.45 -327.62,-383.68 -385.9,-1070.31 -191.36,-1527.22 -143.21,-273.63 -26.72,-848.09 154.73,-1077.09 885.17,-1221.39 7932.11,2499.61 10068.18,2479.76 -3007.07,-18.27 -8452.43,-3034.79 -9283.94,-1985.33z"/></svg>