<svg xmlns="http://www.w3.org/2000/svg" viewBox="0 0 1000 1000">
 <g class="stackoverflow_icon">
  <polygon class="bucket" points="733.27,828.88 733.27,614.55 804.4,614.55 804.4,900 162.37,900 162.37,614.55 233.5,614.55 233.5,828.88 "/>
  <path class="stack" d="M312.02 594.23l349.19 72.97 14.78 -70.2 -349.19 -72.98 -14.78 70.21zm46.19 -166.29l323.33 150.58 29.57 -64.66 -323.33 -151.51 -29.57 65.59zm89.61 -158.88l274.36 228.17 45.26 -54.51 -274.35 -228.17 -45.27 54.51zm177.36 -169.06l-57.27 42.49 212.47 286.37 57.28 -42.49 -212.48 -286.37zm-320.54 656.82l356.57 0 0 -71.14 -356.57 0 0 71.14z"/>
 </g>
</svg>
