<svg xmlns="http://www.w3.org/2000/svg" viewBox="0 0 1000 1000">
  <path class="youtube_icon" d="M793.95 230.11c-165.47,-18.52 -421.57,-18.51 -587.04,0 -45.37,5.02 -81.64,39.1 -91.75,83.27 -20.07,87 -20.24,286.27 -0.17,373.24 10.17,44.16 46.36,78.26 91.75,83.28 165.53,18.51 421.57,18.51 587.1,0 45.41,-5.03 81.58,-39.13 91.81,-83.28 19.32,-84.07 18.9,-291.74 0.17,-373.24 -10.17,-44.17 -46.43,-78.25 -91.87,-83.27zm-402.93 118.78c91.73,47.9 183.49,95.75 275.22,143.65 -91.73,47.58 -183.46,95.15 -275.22,142.68l0 -286.33z"/>
</svg>